<?xml version="1.0" encoding="iso-8859-1"?>
<!-- Generator: Adobe Illustrator 19.0.0, SVG Export Plug-In . SVG Version: 6.00 Build 0)  -->
<svg version="1.1" id="Layer_1" xmlns="http://www.w3.org/2000/svg" xmlns:xlink="http://www.w3.org/1999/xlink" x="0px" y="0px"
	 viewBox="0 0 512 512" style="enable-background:new 0 0 512 512;" xml:space="preserve">
<g>
	<g>
		<path d="M512,297.351l-52.76-15.89l27.425-59.22l-65.201-2.764l10.057-54.179l-98.198,59.85V40.855l-41.028,36.786l-36.294-54.237
			l-36.294,54.237l-41.029-36.784v184.291l-98.199-59.85l10.059,54.18l-65.203,2.764l27.426,59.22L0,297.352l125.652,76.583
			l-23.477,50.108h146.184v64.554h15.283v-64.554h146.183l-23.474-50.108L512,297.351z M193.96,75.084l28.655,25.691l25.744-38.472
			V164.04l-54.399-33.219V75.084z M193.96,148.728l54.399,33.217v44.571l-54.399-33.219V148.728z M248.359,408.76H126.212
			l19.09-40.747L37.18,302.114l36.849-11.097l-19.44-41.973l193.77,118.324V408.76z M248.36,349.462L62.492,235.963l46.286-1.963
			l-7.025-37.838l92.207,56.199v-41.154l54.399,33.219V349.462z M263.641,62.302l25.745,38.473l28.654-25.691v55.737l-54.399,33.22
			V62.302z M263.641,181.947l54.399-33.219V193.3l-54.399,33.218V181.947z M263.641,408.762v-0.002v-41.393l86.122-52.59
			l-7.965-13.043l-78.157,47.727V244.423l54.399-33.217v41.154l92.208-56.199l-7.025,37.839l46.283,1.963l-90.309,55.146
			l7.965,13.043l90.247-55.109l-19.438,41.974l36.847,11.097l-108.12,65.899l19.089,40.747H263.641z"/>
	</g>
</g>
<g>
</g>
<g>
</g>
<g>
</g>
<g>
</g>
<g>
</g>
<g>
</g>
<g>
</g>
<g>
</g>
<g>
</g>
<g>
</g>
<g>
</g>
<g>
</g>
<g>
</g>
<g>
</g>
<g>
</g>
</svg>
