<?xml version="1.0" encoding="iso-8859-1"?>
<!-- Generator: Adobe Illustrator 19.0.0, SVG Export Plug-In . SVG Version: 6.00 Build 0)  -->
<svg version="1.1" id="Layer_1" xmlns="http://www.w3.org/2000/svg" xmlns:xlink="http://www.w3.org/1999/xlink" x="0px" y="0px"
	 viewBox="0 0 512 512" style="enable-background:new 0 0 512 512;" xml:space="preserve">
<g>
	<g>
		<path d="M490.887,453.938v-42.227h-52.784V147.794h42.227V71.031L289.093,0h-71.503L31.67,71.087v76.707h42.227v263.918H21.113
			v42.227H0V512h512v-58.062H490.887z M47.505,131.959V84.454h298.227V68.619H82.465l138.049-52.784h65.734l178.247,66.206v49.917
			H47.505z M401.155,382.68V147.794h21.113v263.918h-58.062V147.794h21.113V382.68H401.155z M348.371,147.794v263.918h-47.505
			V147.794H348.371z M263.918,382.68V147.794h21.113v263.918h-58.062V147.794h21.113V382.68H263.918z M211.134,147.794v263.918
			h-47.505V147.794H211.134z M126.68,382.68V147.794h21.113v263.918H89.732V147.794h21.113V382.68H126.68z M36.948,427.546h438.103
			v26.392H36.948V427.546z M496.165,496.165H15.835v-26.392h480.33V496.165z"/>
	</g>
</g>
<g>
	<g>
		<rect x="240.165" y="36.948" width="31.67" height="15.835"/>
	</g>
</g>
<g>
	<g>
		<rect x="65.979" y="100.289" width="21.113" height="15.835"/>
	</g>
</g>
<g>
	<g>
		<rect x="424.907" y="100.289" width="21.113" height="15.835"/>
	</g>
</g>
<g>
	<g>
		<rect x="213.773" y="100.289" width="84.454" height="15.835"/>
	</g>
</g>
<g>
</g>
<g>
</g>
<g>
</g>
<g>
</g>
<g>
</g>
<g>
</g>
<g>
</g>
<g>
</g>
<g>
</g>
<g>
</g>
<g>
</g>
<g>
</g>
<g>
</g>
<g>
</g>
<g>
</g>
</svg>
